<?xml version="1.0" encoding="iso-8859-1"?>
<!-- Uploaded to: SVG Repo, www.svgrepo.com, Generator: SVG Repo Mixer Tools -->
<svg fill="#ffffff" height="800px" width="800px" version="1.1" id="Capa_1" xmlns="http://www.w3.org/2000/svg" xmlns:xlink="http://www.w3.org/1999/xlink" 
	 viewBox="0 0 612.001 612.001" xml:space="preserve">
<g>
	<g>
		<path d="M10.141,365.441L293.232,167.42c-0.893-7.175-1.348-14.428-1.348-21.741c0-12.717,1.357-25.257,4.048-37.511
			L2.362,355.316C-3.872,360.564,3.464,370.112,10.141,365.441z"/>
		<path d="M256.684,609.639l247.148-293.57c-12.253,2.69-24.793,4.047-37.511,4.047c-7.313,0-14.566-0.455-21.741-1.348
			L246.559,601.86C241.889,608.537,251.436,615.872,256.684,609.639z"/>
		<path d="M466.322,0.001c-37.282,0-74.565,14.223-103.01,42.668c-8.14,8.14-15.111,17.007-20.922,26.388
			c-14.957,24.145-22.193,51.711-21.716,79.169c0.477,27.473,8.68,54.832,24.607,78.549l-9.902,11.017l-9.831,10.939L70.75,532.227
			c-5.4,6.008,3.016,14.425,9.025,9.025L363.27,286.454l10.939-9.831l11.017-9.902c23.717,15.927,51.076,24.13,78.549,24.608
			c0.849,0.015,1.698,0.03,2.547,0.03c26.613,0,53.223-7.253,76.623-21.747c9.381-5.811,18.247-12.781,26.388-20.922
			c56.891-56.891,56.891-149.129,0-206.021C540.886,14.224,503.603,0.001,466.322,0.001z"/>
	</g>
</g>
</svg>